<svg width="377" height="136" viewBox="0 0 377 136" fill="none" xmlns="http://www.w3.org/2000/svg">
<path d="M115.89 106.23C116.09 107.29 116.21 108.39 116.05 109.44C116.01 109.71 115.95 109.99 115.88 110.26C115.44 112.01 114.83 113.72 114.3 115.45L112.91 119.95C111.94 123.09 110.97 126.23 110.01 129.37C109.39 131.4 108.76 133.42 108.14 135.45C108.14 135.48 108.02 135.93 107.99 135.93H16.5L25.65 106.23H70.34L67.34 103.98L31.74 77.26L29.41 75.51C23.86 70.86 20.16 64.07 19.59 56.41C19.54 55.72 19.51 55.02 19.51 54.33C19.51 45.85 23.33 38.27 29.34 33.21C34.14 29.16 40.35 26.72 47.12 26.72H117.55L108.4 56.41H60.26L72.38 65.5L105.79 90.58C105.79 90.58 105.83 90.61 105.86 90.63L106.82 91.35C106.82 91.35 106.86 91.38 106.88 91.4C107.59 92.11 108.42 92.69 109.13 93.41C109.84 94.13 110.53 94.91 111.16 95.72C112.43 97.35 113.49 99.14 114.31 101.03C114.89 102.36 115.36 103.74 115.67 105.16C115.75 105.51 115.82 105.86 115.89 106.22V106.23Z" fill="white"/>
<path d="M19.73 106.22L10.58 135.92H0.220001L9.37 106.22H19.73Z" fill="#4461F2"/>
<path d="M153.54 19.64C136.7 18.55 134.34 16.03 138.7 1.45999C138.87 0.879992 138.04 0.56998 137.78 1.11998C130.87 16.1 126.65 18.51 108.56 19.31C107.96 19.34 107.92 20.28 108.52 20.28C129.9 20.41 126.43 29.14 121.68 45.09C121.5 45.68 122.35 45.99 122.6 45.43C129.86 29.2 135.25 22.49 153.57 20.62C154.17 20.56 154.14 19.68 153.55 19.65L153.54 19.64Z" fill="#4461F2"/>
<path d="M161.79 106.88C159.83 106.88 158.01 106.64 156.31 106.16C154.61 105.68 153.1 105.01 151.77 104.14C150.44 103.27 149.34 102.31 148.48 101.23C147.61 100.16 147.05 99.0401 146.79 97.8501L154.21 95.6401C154.69 96.9001 155.54 97.9701 156.76 98.8801C157.98 99.7901 159.51 100.26 161.35 100.29C163.31 100.33 164.9 99.9 166.14 99.02C167.38 98.14 167.99 96.99 167.99 95.59C167.99 94.37 167.5 93.35 166.52 92.52C165.54 91.69 164.2 91.05 162.51 90.61L157.47 89.28C155.59 88.8 153.93 88.07 152.49 87.09C151.05 86.11 149.92 84.9001 149.11 83.4601C148.3 82.0201 147.89 80.34 147.89 78.42C147.89 74.77 149.1 71.92 151.52 69.87C153.94 67.82 157.36 66.8 161.79 66.8C164.26 66.8 166.43 67.1601 168.29 67.8801C170.15 68.6001 171.71 69.62 172.97 70.95C174.22 72.28 175.18 73.85 175.85 75.66L168.49 77.93C168.05 76.68 167.24 75.6 166.05 74.72C164.87 73.83 163.37 73.39 161.57 73.39C159.77 73.39 158.28 73.81 157.22 74.66C156.17 75.51 155.64 76.71 155.64 78.26C155.64 79.48 156.06 80.44 156.89 81.14C157.72 81.84 158.85 82.38 160.29 82.75L165.38 84.0201C168.7 84.8301 171.28 86.29 173.13 88.39C174.97 90.49 175.9 92.8401 175.9 95.4201C175.9 97.7101 175.35 99.71 174.24 101.43C173.13 103.15 171.53 104.48 169.42 105.44C167.32 106.4 164.77 106.88 161.78 106.88H161.79Z" fill="white"/>
<path d="M190.57 106.22V74.39H178.95V67.47H209.73V74.39H198.16V106.22H190.58H190.57Z" fill="white"/>
<path d="M214.71 106.22V67.47H239.23V74.39H222.29V83.19H236.9V89.94H222.29V99.3H239.45V106.22H214.71Z" fill="white"/>
<path d="M247.31 106.22V67.47H254.89V99.3H271.94V106.22H247.31Z" fill="white"/>
<path d="M277.04 106.22V67.47H284.62V99.3H301.67V106.22H277.04Z" fill="white"/>
<path d="M303 106.22L318.28 67.47H325.86L311.02 106.22H302.99H303ZM310.2 97.7V91H334.5V97.7H310.2ZM333.62 106.22L318.79 67.47H326.37L341.65 106.22H333.62Z" fill="white"/>
<path d="M346.29 106.22V67.47H360.68C363.41 67.47 365.83 68.01 367.93 69.08C370.03 70.15 371.68 71.62 372.86 73.48C374.04 75.34 374.63 77.51 374.63 79.98C374.63 82.45 374.01 84.58 372.78 86.48C371.54 88.38 369.86 89.86 367.72 90.91C365.58 91.96 363.14 92.49 360.41 92.49H353.88V106.22H346.3H346.29ZM353.87 85.57H360.73C361.87 85.57 362.9 85.33 363.8 84.85C364.7 84.37 365.42 83.71 365.96 82.86C366.5 82.01 366.76 81.05 366.76 79.98C366.76 78.32 366.16 76.97 364.96 75.94C363.76 74.91 362.22 74.39 360.34 74.39H353.86V85.57H353.87ZM367.6 106.22L358.63 90.67L364.44 86.52L376.18 106.23H367.6V106.22Z" fill="white"/>
</svg>
