<svg width="384" height="137" viewBox="0 0 384 137" fill="none" xmlns="http://www.w3.org/2000/svg">
<path d="M116.081 106.349C116.281 107.409 116.401 108.509 116.241 109.559C116.201 109.829 116.141 110.109 116.071 110.379C115.631 112.129 115.021 113.839 114.491 115.569L113.101 120.069C112.131 123.209 111.161 126.349 110.201 129.489C109.581 131.519 108.951 133.539 108.331 135.569C108.331 135.599 108.211 136.049 108.181 136.049H16.6914L25.8414 106.349H70.5314L67.5314 104.099L31.9314 77.3786L29.6014 75.6286C24.0514 70.9786 20.3514 64.1886 19.7814 56.5286C19.7314 55.8386 19.7014 55.1386 19.7014 54.4486C19.7014 45.9686 23.5214 38.3886 29.5314 33.3286C34.3314 29.2786 40.5414 26.8386 47.3114 26.8386H117.741L108.591 56.5286H60.4514L72.5714 65.6186L105.981 90.6986C105.981 90.6986 106.021 90.7286 106.051 90.7486L107.011 91.4686C107.011 91.4686 107.051 91.4986 107.071 91.5186C107.781 92.2286 108.611 92.8086 109.321 93.5286C110.031 94.2486 110.721 95.0286 111.351 95.8386C112.621 97.4686 113.681 99.2586 114.501 101.149C115.081 102.479 115.551 103.859 115.861 105.279C115.941 105.629 116.011 105.979 116.081 106.339V106.349Z" fill="white"/>
<path d="M19.9216 106.339L10.7716 136.039H0.411621L9.56162 106.339H19.9216Z" fill="#4461F2"/>
<path d="M153.732 19.7586C136.892 18.6686 134.532 16.1486 138.892 1.57864C139.062 0.998644 138.232 0.688633 137.972 1.23863C131.062 16.2186 126.842 18.6286 108.752 19.4286C108.152 19.4586 108.112 20.3986 108.712 20.3986C130.092 20.5286 126.622 29.2586 121.872 45.2086C121.692 45.7986 122.542 46.1086 122.792 45.5486C130.052 29.3186 135.442 22.6086 153.762 20.7386C154.362 20.6786 154.332 19.7986 153.742 19.7686L153.732 19.7586Z" fill="#4461F2"/>
<path d="M169.198 88.54C167.238 88.54 165.418 88.3 163.718 87.82C162.018 87.34 160.508 86.67 159.178 85.8C157.848 84.93 156.748 83.97 155.888 82.89C155.018 81.82 154.458 80.7 154.198 79.51L161.618 77.3C162.098 78.56 162.948 79.63 164.168 80.54C165.388 81.45 166.918 81.92 168.758 81.95C170.718 81.99 172.308 81.5599 173.548 80.6799C174.788 79.7999 175.398 78.65 175.398 77.25C175.398 76.03 174.908 75.0099 173.928 74.1799C172.948 73.3499 171.608 72.7099 169.918 72.2699L164.878 70.94C162.998 70.46 161.338 69.73 159.898 68.75C158.458 67.77 157.328 66.56 156.518 65.12C155.708 63.68 155.298 62 155.298 60.08C155.298 56.43 156.508 53.58 158.928 51.53C161.348 49.48 164.768 48.46 169.198 48.46C171.668 48.46 173.838 48.82 175.698 49.54C177.558 50.26 179.118 51.28 180.378 52.61C181.628 53.94 182.588 55.51 183.258 57.32L175.898 59.59C175.458 58.34 174.648 57.26 173.458 56.38C172.278 55.49 170.778 55.05 168.978 55.05C167.178 55.05 165.688 55.47 164.628 56.32C163.578 57.17 163.048 58.37 163.048 59.92C163.048 61.14 163.468 62.1 164.298 62.8C165.128 63.5 166.258 64.04 167.698 64.41L172.788 65.68C176.108 66.49 178.688 67.95 180.538 70.05C182.378 72.15 183.308 74.5 183.308 77.08C183.308 79.37 182.758 81.3699 181.648 83.09C180.538 84.81 178.938 86.14 176.828 87.1C174.728 88.06 172.178 88.54 169.188 88.54H169.198Z" fill="white"/>
<path d="M197.978 87.8799V56.0499H186.358V49.1299H217.138V56.0499H205.568V87.8799H197.988H197.978Z" fill="white"/>
<path d="M222.118 87.8799V49.1299H246.638V56.0499H229.698V64.8499H244.308V71.5999H229.698V80.9599H246.858V87.8799H222.118Z" fill="white"/>
<path d="M254.718 87.8799V49.1299H262.298V80.9599H279.348V87.8799H254.718Z" fill="white"/>
<path d="M284.448 87.8799V49.1299H292.028V80.9599H309.078V87.8799H284.448Z" fill="white"/>
<path d="M310.408 87.8799L325.688 49.1299H333.268L318.428 87.8799H310.398H310.408ZM317.608 79.3599V72.6599H341.908V79.3599H317.608ZM341.028 87.8799L326.198 49.1299H333.778L349.058 87.8799H341.028Z" fill="white"/>
<path d="M353.698 87.8799V49.1299H368.088C370.818 49.1299 373.238 49.6699 375.338 50.7399C377.438 51.8099 379.088 53.2799 380.268 55.1399C381.448 56.9999 382.038 59.1699 382.038 61.6399C382.038 64.1099 381.418 66.2399 380.188 68.1399C378.948 70.0399 377.268 71.5199 375.128 72.5699C372.988 73.6199 370.548 74.1499 367.818 74.1499H361.288V87.8799H353.708H353.698ZM361.278 67.2299H368.138C369.278 67.2299 370.308 66.9899 371.208 66.5099C372.108 66.0299 372.828 65.3699 373.368 64.5199C373.908 63.6699 374.168 62.7099 374.168 61.6399C374.168 59.9799 373.568 58.6299 372.368 57.5999C371.168 56.5699 369.628 56.0499 367.748 56.0499H361.268V67.2299H361.278ZM375.008 87.8799L366.038 72.3299L371.848 68.1799L383.588 87.8899H375.008V87.8799Z" fill="white"/>
</svg>
