<svg width="387" height="151" viewBox="0 0 387 151" fill="none" xmlns="http://www.w3.org/2000/svg">
<path d="M146.608 91.307C144.96 91.307 143.431 91.0955 142.002 90.6727C140.573 90.2499 139.304 89.6597 138.186 88.8933C137.068 88.1269 136.143 87.2812 135.42 86.3298C134.689 85.3872 134.219 84.4006 134 83.3523L140.237 81.4055C140.64 82.5155 141.355 83.458 142.38 84.2597C143.405 85.0613 144.691 85.4753 146.238 85.5018C147.885 85.537 149.222 85.1582 150.264 84.383C151.306 83.599 151.819 82.5947 151.819 81.3615C151.819 80.2867 151.407 79.3882 150.583 78.6571C149.76 77.9259 148.633 77.3621 147.213 76.9745L142.977 75.8029C141.397 75.3801 140.001 74.737 138.791 73.8737C137.581 73.0104 136.631 71.9445 135.95 70.676C135.269 69.4075 134.925 67.9275 134.925 66.2362C134.925 63.0209 135.942 60.5103 137.976 58.7044C140.01 56.8985 142.884 56 146.608 56C148.684 56 150.508 56.3171 152.071 56.9514C153.634 57.5856 154.946 58.4842 156.005 59.6558C157.055 60.8274 157.862 62.2104 158.425 63.8049L152.239 65.8045C151.869 64.7034 151.18 63.752 150.188 62.9768C149.197 62.1928 147.936 61.8052 146.423 61.8052C144.91 61.8052 143.658 62.1752 142.767 62.924C141.884 63.6727 141.439 64.7298 141.439 66.0952C141.439 67.17 141.792 68.0156 142.489 68.6323C143.187 69.2489 144.145 69.7246 145.347 70.0505L149.625 71.1693C152.416 71.8828 154.584 73.169 156.139 75.0189C157.686 76.8688 158.467 78.939 158.467 81.2117C158.467 83.229 158.005 84.9908 157.072 86.506C156.139 88.0212 154.794 89.1928 153.021 90.0384C151.256 90.8841 149.112 91.307 146.599 91.307H146.608Z" fill="#0B103D"/>
<path d="M170.798 90.7256V62.6861H161.031V56.5902H186.902V62.6861H177.177V90.7256H170.806H170.798Z" fill="#0B103D"/>
<path d="M191.088 90.7256V56.5902H211.697V62.6861H197.459V70.4382H209.739V76.3843H197.459V84.6296H211.882V90.7256H191.088Z" fill="#0B103D"/>
<path d="M218.489 90.7256V56.5902H224.86V84.6296H239.191V90.7256H218.489Z" fill="#0B103D"/>
<path d="M243.477 90.7256V56.5902H249.848V84.6296H264.179V90.7256H243.477Z" fill="#0B103D"/>
<path d="M265.297 90.7256L278.14 56.5902H284.511L272.038 90.7256H265.289H265.297ZM271.349 83.2202V77.3181H291.773V83.2202H271.349ZM291.034 90.7256L278.569 56.5902H284.94L297.783 90.7256H291.034Z" fill="#0B103D"/>
<path d="M301.683 90.7256V56.5902H313.778C316.072 56.5902 318.106 57.0659 319.871 58.0085C321.636 58.9511 323.023 60.246 324.015 61.8845C325.007 63.523 325.503 65.4346 325.503 67.6104C325.503 69.7863 324.982 71.6626 323.948 73.3363C322.906 75.0101 321.494 76.3138 319.695 77.2388C317.896 78.1638 315.845 78.6306 313.551 78.6306H308.062V90.7256H301.691H301.683ZM308.054 72.5347H313.82C314.778 72.5347 315.644 72.3233 316.4 71.9005C317.156 71.4776 317.762 70.8962 318.216 70.1474C318.669 69.3987 318.888 68.553 318.888 67.6104C318.888 66.1481 318.384 64.9589 317.375 64.0515C316.366 63.1442 315.072 62.6861 313.492 62.6861H308.045V72.5347H308.054ZM319.594 90.7256L312.055 77.0274L316.938 73.3716L326.806 90.7344H319.594V90.7256Z" fill="#0B103D"/>
<path d="M144.538 16.2664C128.637 15.3027 126.429 13.1216 130.57 0.542585C130.735 0.0353667 129.962 -0.218246 129.686 0.238251C123.172 13.2231 119.197 15.3027 102.137 16.0128C101.585 16.0635 101.53 16.875 102.082 16.875C122.233 16.9765 118.976 24.534 114.504 38.3811C114.338 38.8883 115.111 39.1419 115.387 38.6854C122.233 24.6355 127.312 18.8025 144.593 17.1794C145.145 17.0779 145.145 16.3171 144.538 16.2664Z" fill="#4461F2"/>
<path d="M18.3846 91.284L9.77201 117H0L8.61262 91.284H18.3846Z" fill="#4461F2"/>
<path d="M144.538 16.2664C128.637 15.3027 126.429 13.1216 130.57 0.542585C130.735 0.0353667 129.962 -0.218246 129.686 0.238251C123.172 13.2231 119.197 15.3027 102.137 16.0128C101.585 16.0635 101.53 16.875 102.082 16.875C122.233 16.9765 118.976 24.534 114.504 38.3811C114.338 38.8883 115.111 39.1419 115.387 38.6854C122.233 24.6355 127.312 18.8025 144.593 17.1794C145.145 17.0779 145.145 16.3171 144.538 16.2664Z" fill="#4461F2"/>
<path d="M104.732 26.4107L98.7691 44.1634H56.5893H43.56L53.9393 51.3152L65.3676 59.177L96.8367 80.886C96.892 80.9367 96.9472 80.9875 97.0024 80.9875L97.6649 81.4439C98.0513 81.799 98.4378 82.0526 98.7691 82.357C99.0451 82.6106 99.3764 82.8134 99.542 83.0163C100.094 83.5235 100.646 84.0815 101.088 84.6394C102.082 85.806 102.855 87.0741 103.517 88.3929C103.959 89.3566 104.29 90.3203 104.511 91.2333C104.566 91.4869 104.621 91.7405 104.676 92.0448C104.787 92.7042 104.842 93.2114 104.787 93.5158C104.787 93.6172 104.732 93.7694 104.732 93.8708C104.456 94.7838 104.18 95.6968 103.793 96.7112C103.627 97.2185 103.462 97.675 103.296 98.1822L101.971 102.088L99.2107 110.254L98.8795 111.268L98.2722 113.145H21.2003L27.1629 95.3925H66.0853H79.0594L68.7353 88.0885L65.9197 86.1611L32.3525 63.0319L30.2546 61.561C25.7827 58.0612 23.0774 53.1919 22.6357 47.8154C22.5805 47.3589 22.5805 46.8516 22.5805 46.3444C22.5805 40.4607 25.3962 34.8813 30.3098 31.0771C34.2296 28.0338 39.1433 26.4107 44.2777 26.4107H104.732ZM110.639 22.4037H44.2225C37.8182 22.4037 31.9661 24.534 27.4389 28.0338C21.7524 32.3959 18.1638 38.9897 18.1638 46.3444C18.1638 46.9531 18.1638 47.5617 18.219 48.1704C18.7711 54.815 22.2493 60.6987 27.4941 64.7057L29.7025 66.2274L63.2696 89.3566L66.0853 91.284H23.9608L15.3481 117H101.585C101.585 117 101.695 116.594 101.75 116.594C102.358 114.819 102.91 113.094 103.517 111.319C104.456 108.58 105.339 105.892 106.278 103.153C106.719 101.834 107.161 100.566 107.603 99.2473C108.099 97.7764 108.707 96.2547 109.093 94.7331C109.148 94.4795 109.204 94.2766 109.259 94.023C109.424 93.11 109.314 92.1463 109.093 91.2333C109.038 90.9289 108.983 90.6246 108.872 90.3203C108.596 89.103 108.155 87.8856 107.603 86.7697C106.83 85.1466 105.836 83.5743 104.621 82.1541C104.014 81.444 103.407 80.7846 102.689 80.1759C102.026 79.5672 101.253 79.06 100.591 78.4514L100.536 78.4006L99.6524 77.792L99.5972 77.7413L68.0728 56.0323L56.5893 48.1197H101.971L110.639 22.4037Z" fill="#0B103D"/>
<path d="M144.538 16.2664C128.637 15.3027 126.429 13.1216 130.57 0.542585C130.735 0.0353667 129.962 -0.218246 129.686 0.238251C123.172 13.2231 119.197 15.3027 102.137 16.0128C101.585 16.0635 101.53 16.875 102.082 16.875C122.233 16.9765 118.976 24.534 114.504 38.3811C114.338 38.8883 115.111 39.1419 115.387 38.6854C122.233 24.6355 127.312 18.8025 144.593 17.1794C145.145 17.0779 145.145 16.3171 144.538 16.2664Z" fill="#4461F2"/>
</svg>
